<?xml version="1.0" encoding="UTF-8"?>
<svg width="17px" height="17px" viewBox="0 0 17 17" version="1.1" xmlns="http://www.w3.org/2000/svg" xmlns:xlink="http://www.w3.org/1999/xlink">
    <!-- Generator: Sketch 50.2 (55047) - http://www.bohemiancoding.com/sketch -->
    <title>Shape@3x</title>
    <desc>Created with Sketch.</desc>
    <defs></defs>
    <g id="SCREENS" stroke="none" stroke-width="1" fill="none" fill-rule="evenodd">
        <g id="05_01-::-CLIENTS-PAGE" transform="translate(-595.000000, -188.000000)" fill="#666666" fill-rule="nonzero">
            <g id="Group-6" transform="translate(335.000000, 150.000000)">
                <g id="Group-5">
                    <g id="Group-8">
                        <g id="Group-9">
                            <path d="M275.795535,39.3538458 L274.92638,38.4846904 C274.280126,37.8384365 273.153592,37.8384365 272.507338,38.4846904 L271.383209,39.6088194 C271.382407,39.6096212 271.380804,39.6112248 271.380002,39.6120266 C271.3792,39.6128284 271.377596,39.614432 271.376794,39.6152338 L264.684138,46.3070885 C264.610372,46.3808545 264.563066,46.4762691 264.548633,46.5789 L264.114055,49.6209438 C264.092407,49.7708811 264.14292,49.9216202 264.24956,50.0290619 C264.340164,50.1212693 264.46284,50.1709812 264.589525,50.1709812 C264.611976,50.1709812 264.635228,50.1693776 264.657678,50.1661704 L267.699722,49.7315927 C267.802353,49.7171602 267.898569,49.669052 267.971534,49.5960878 L274.663388,42.9034313 C274.66419,42.9026295 274.665794,42.9010259 274.666596,42.9002241 C274.667397,42.8994223 274.669001,42.8978187 274.669803,42.8970169 L275.793932,41.7728879 C276.117059,41.449761 276.295059,41.0207959 276.295059,40.5637677 C276.295059,40.1067396 276.117861,39.6769727 275.795535,39.3538458 Z M267.40546,48.8015002 L265.157202,49.1230236 L265.478726,46.8739638 L271.720768,40.6327229 L273.647503,42.5594575 L267.40546,48.8015002 Z M275.114804,41.0921565 L274.327433,41.8795278 L272.400698,39.9527932 L273.188069,39.1654219 C273.471106,38.8815833 273.963414,38.8815833 274.245649,39.1654219 L275.114804,40.0345772 C275.256723,40.1756947 275.333696,40.3641186 275.333696,40.5637677 C275.333696,40.7634169 275.256723,40.951039 275.114804,41.0921565 Z M275.394633,46.4826836 L275.394633,50.4917027 C275.394633,52.525879 273.740512,54.1800003 271.706336,54.1800003 L263.688298,54.1800003 C261.654121,54.1800003 260,52.525879 260,50.4917027 L260,42.4736644 C260,40.4394881 261.654121,38.7853668 263.688298,38.7853668 L267.697317,38.7853668 C267.963516,38.7853668 268.178399,39.0010521 268.178399,39.2664491 C268.178399,39.5318462 267.962714,39.7475314 267.697317,39.7475314 L263.688298,39.7475314 C262.184915,39.7475314 260.962165,40.9702823 260.962165,42.4736644 L260.962165,50.4917027 C260.962165,51.9950849 262.184915,53.2178357 263.688298,53.2178357 L271.706336,53.2178357 C273.209718,53.2178357 274.432469,51.9950849 274.432469,50.4917027 L274.432469,46.4826836 C274.432469,46.2164847 274.648154,46.0016013 274.913551,46.0016013 C275.178948,46.0016013 275.394633,46.2164847 275.394633,46.4826836 Z" id="Shape"></path>
                        </g>
                    </g>
                </g>
            </g>
        </g>
    </g>
</svg>