<?xml version="1.0" encoding="UTF-8"?>
<svg width="14px" height="14px" viewBox="0 0 14 14" version="1.1" xmlns="http://www.w3.org/2000/svg" xmlns:xlink="http://www.w3.org/1999/xlink">
    <!-- Generator: Sketch 50.2 (55047) - http://www.bohemiancoding.com/sketch -->
    <title>at@3x</title>
    <desc>Created with Sketch.</desc>
    <defs></defs>
    <g id="SCREENS" stroke="none" stroke-width="1" fill="none" fill-rule="evenodd">
        <g id="05_01-::-CLIENTS-PAGE" transform="translate(-364.000000, -332.000000)" fill="#0086FF" fill-rule="nonzero" stroke="#0086FF" stroke-width="0.5">
            <g id="Group-6" transform="translate(335.000000, 150.000000)">
                <g id="Group-5">
                    <g id="Group-8">
                        <g id="Group-9">
                            <g id="Group-2" transform="translate(30.000000, 182.000000)">
                                <g id="at" transform="translate(0.000000, 1.000000)">
                                    <path d="M6.375,3.75 C4.92756774,3.75 3.75,4.92756261 3.75,6.37498857 C3.75,7.82241452 4.92756774,9 6.375,9 C7.82243226,9 9,7.82243739 9,6.37501143 C9,4.92758548 7.82243226,3.75 6.375,3.75 Z M6.375,8.05423223 C5.44905125,8.05423223 4.69574903,7.30093329 4.69574903,6.37498857 C4.69574903,5.44904385 5.44905125,4.69574491 6.375,4.69574491 C7.30097161,4.69574491 8.05425097,5.44904385 8.05425097,6.37498857 C8.05425097,7.30093329 7.30097161,8.05423223 6.375,8.05423223 Z" id="Shape"></path>
                                    <path d="M10.242375,1.75710937 C9.109125,0.623976562 7.60253906,0 6,0 C5.99988281,0 5.99969531,0 5.99960156,0 C4.39694531,9.375e-05 2.89026563,0.624304688 1.75710937,1.757625 C0.62390625,2.89094531 -0.0001171875,4.39774219 0,6.00039844 C9.375e-05,7.60303125 0.624304688,9.10975781 1.757625,10.2429141 C2.890875,11.3760234 4.39746094,12.0000234 6,12 C6.00009375,12 6.00028125,12 6.00039844,12 C7.31160937,11.9999062 8.60702344,11.5608281 9.648,10.763625 C9.86057812,10.6008516 9.9009375,10.2965859 9.73814062,10.0840547 C9.57536719,9.8715 9.271125,9.83107031 9.05857031,9.99391406 C8.18575781,10.6623047 7.09966406,11.0304141 6.00030469,11.0305078 C6.00016406,11.0305078 6.00016406,11.0305078 5.99997656,11.0305078 C4.65644531,11.0305078 3.39316406,10.5072891 2.44307813,9.55732031 C1.492875,8.60725781 0.969539063,7.344 0.969445313,6.00030469 C0.969304687,3.22647656 3.22584375,0.96965625 5.99967187,0.96946875 C5.99983594,0.96946875 5.9998125,0.96946875 6,0.96946875 C8.77359375,0.96946875 11.0303438,3.22600781 11.0305312,5.99967188 L11.0305312,6.55120313 C11.0305312,7.19627344 10.5057656,7.72103906 9.86069531,7.72103906 C9.215625,7.72103906 8.69085937,7.19625 8.69085937,6.55120313 L8.69085937,5.99967188 C8.69085937,5.73196875 8.47385156,5.5149375 8.206125,5.5149375 C7.93839844,5.5149375 7.72139062,5.73196875 7.72139062,5.99967188 L7.72139062,6.55120313 C7.72139062,7.7308125 8.68108594,8.69053125 9.86071875,8.69053125 C11.0403516,8.69053125 12,7.7308125 12,6.55120312 L12,5.999625 C11.9998828,4.39696875 11.3756719,2.89026563 10.242375,1.75710937 Z" id="Shape"></path>
                                </g>
                            </g>
                        </g>
                    </g>
                </g>
            </g>
        </g>
    </g>
</svg>