<?xml version="1.0" encoding="UTF-8"?>
<svg width="20px" height="20px" viewBox="0 0 20 20" version="1.1" xmlns="http://www.w3.org/2000/svg" xmlns:xlink="http://www.w3.org/1999/xlink">
    <!-- Generator: Sketch 50.2 (55047) - http://www.bohemiancoding.com/sketch -->
    <title>ICON / GREY / CLIENTS@3x</title>
    <desc>Created with Sketch.</desc>
    <defs></defs>
    <g id="SYMBOLS" stroke="none" stroke-width="1" fill="none" fill-rule="evenodd">
        <g id="ASIDE" transform="translate(-50.000000, -220.000000)" fill="#A8A8A8" fill-rule="nonzero">
            <g id="SECT" transform="translate(50.000000, 150.000000)">
                <g id="CLIENTS" transform="translate(0.000000, 70.000000)">
                    <g id="ICON">
                        <g id="ICON-/-GREY-/-CLIENTS">
                            <path d="M18.0141844,0 L1.9858156,0 C0.907801418,0 0,1.11304348 0,2.43478261 L0,2.67826087 L1.70212766,2.67826087 C2.0141844,2.67826087 2.26950355,2.99130435 2.26950355,3.37391304 C2.26950355,3.75652174 2.0141844,4.06956522 1.70212766,4.06956522 L0,4.06956522 L0,5.9826087 L1.70212766,5.9826087 C2.0141844,5.9826087 2.26950355,6.29565217 2.26950355,6.67826087 C2.26950355,7.06086957 2.0141844,7.37391304 1.70212766,7.37391304 L0,7.37391304 L0,9.28695652 L1.70212766,9.28695652 C2.0141844,9.28695652 2.26950355,9.6 2.26950355,9.9826087 C2.26950355,10.3652174 2.0141844,10.6782609 1.70212766,10.6782609 L0,10.6782609 L0,12.5913043 L1.70212766,12.5913043 C2.0141844,12.5913043 2.26950355,12.9043478 2.26950355,13.2869565 C2.26950355,13.6695652 2.0141844,13.9826087 1.70212766,13.9826087 L0,13.9826087 L0,15.8956522 L1.70212766,15.8956522 C2.0141844,15.8956522 2.26950355,16.2086957 2.26950355,16.5913043 C2.26950355,16.973913 2.0141844,17.2869565 1.70212766,17.2869565 L0,17.2869565 L0,17.5652174 C0,18.8869565 0.907801418,20 1.9858156,20 L18.0141844,20 C19.0921986,20 20,18.8869565 20,17.5652174 L20,2.43478261 C20,1.07826087 19.0921986,0 18.0141844,0 Z M10.6111111,5.83333333 C11.6388889,5.83333333 12.4444444,6.66666667 12.4444444,7.66666667 C12.4444444,8.69444444 11.6111111,9.5 10.6111111,9.5 C9.61111111,9.5 8.77777778,8.66666667 8.77777778,7.66666667 C8.77777778,6.63888889 9.58333333,5.83333333 10.6111111,5.83333333 Z M13.5666682,14.1111111 L7.6777793,14.1111111 L7.6777793,12.6666667 C7.6777793,11.3055556 8.78889041,10.1944444 10.1500015,10.1944444 L11.1500015,10.1944444 C12.5111126,10.1944444 13.594446,11.3055556 13.594446,12.6666667 L13.594446,14.1111111 L13.5666682,14.1111111 Z" id="ICO_CLIENTS"></path>
                        </g>
                    </g>
                </g>
            </g>
        </g>
    </g>
</svg>