<?xml version="1.0" encoding="UTF-8"?>
<svg width="20px" height="20px" viewBox="0 0 20 20" version="1.1" xmlns="http://www.w3.org/2000/svg" xmlns:xlink="http://www.w3.org/1999/xlink">
    <!-- Generator: Sketch 50.2 (55047) - http://www.bohemiancoding.com/sketch -->
    <title>ICON@3x</title>
    <desc>Created with Sketch.</desc>
    <defs></defs>
    <g id="SYMBOLS" stroke="none" stroke-width="1" fill="none" fill-rule="evenodd">
        <g id="ASIDE" transform="translate(-50.000000, -150.000000)">
            <g id="SECT" transform="translate(50.000000, 150.000000)">
                <g id="OVERVIEW">
                    <g id="ICON">
                        <g id="ICON-/-BLUE-/-OVERVIEW" fill="#0086FF">
                            <path d="M1,0 L7.96551724,0 C8.51780199,-1.01453063e-16 8.96551724,0.44771525 8.96551724,1 L8.96551724,5 C8.96551724,5.55228475 8.51780199,6 7.96551724,6 L1,6 C0.44771525,6 -3.76453835e-16,5.55228475 -4.4408921e-16,5 L0,1 C-6.76353751e-17,0.44771525 0.44771525,1.01453063e-16 1,0 Z M12.0344828,13.8722861 L19,13.8722861 C19.5522847,13.8722861 20,14.3200013 20,14.8722861 L20,18.8722861 C20,19.4245708 19.5522847,19.8722861 19,19.8722861 L12.0344828,19.8722861 C11.482198,19.8722861 11.0344828,19.4245708 11.0344828,18.8722861 L11.0344828,14.8722861 C11.0344828,14.3200013 11.482198,13.8722861 12.0344828,13.8722861 Z M12.0344828,0 L19,0 C19.5522847,-5.91980459e-16 20,0.44771525 20,1 L20,10.0344828 C20,10.5867675 19.5522847,11.0344828 19,11.0344828 L12.0344828,11.0344828 C11.482198,11.0344828 11.0344828,10.5867675 11.0344828,10.0344828 L11.0344828,1 C11.0344828,0.44771525 11.482198,1.01453063e-16 12.0344828,0 Z M1,8.96551724 L7.96551724,8.96551724 C8.51780199,8.96551724 8.96551724,9.41323249 8.96551724,9.96551724 L8.96551724,19 C8.96551724,19.5522847 8.51780199,20 7.96551724,20 L1,20 C0.44771525,20 -3.76453835e-16,19.5522847 -4.4408921e-16,19 L0,9.96551724 C-6.76353751e-17,9.41323249 0.44771525,8.96551724 1,8.96551724 Z" id="ICO_OVERVIEW"></path>
                        </g>
                        <g id="ICON-/-GREY-/-OVERVIEW-" fill="#A8A8A8">
                            <path d="M1,0 L7.96551724,0 C8.51780199,-1.01453063e-16 8.96551724,0.44771525 8.96551724,1 L8.96551724,5 C8.96551724,5.55228475 8.51780199,6 7.96551724,6 L1,6 C0.44771525,6 -3.76453835e-16,5.55228475 -4.4408921e-16,5 L0,1 C-6.76353751e-17,0.44771525 0.44771525,1.01453063e-16 1,0 Z M12.0344828,13.8722861 L19,13.8722861 C19.5522847,13.8722861 20,14.3200013 20,14.8722861 L20,18.8722861 C20,19.4245708 19.5522847,19.8722861 19,19.8722861 L12.0344828,19.8722861 C11.482198,19.8722861 11.0344828,19.4245708 11.0344828,18.8722861 L11.0344828,14.8722861 C11.0344828,14.3200013 11.482198,13.8722861 12.0344828,13.8722861 Z M12.0344828,0 L19,0 C19.5522847,-5.91980459e-16 20,0.44771525 20,1 L20,10.0344828 C20,10.5867675 19.5522847,11.0344828 19,11.0344828 L12.0344828,11.0344828 C11.482198,11.0344828 11.0344828,10.5867675 11.0344828,10.0344828 L11.0344828,1 C11.0344828,0.44771525 11.482198,1.01453063e-16 12.0344828,0 Z M1,8.96551724 L7.96551724,8.96551724 C8.51780199,8.96551724 8.96551724,9.41323249 8.96551724,9.96551724 L8.96551724,19 C8.96551724,19.5522847 8.51780199,20 7.96551724,20 L1,20 C0.44771525,20 -2.65431532e-16,19.5522847 -3.33066907e-16,19 L0,9.96551724 C-6.76353751e-17,9.41323249 0.44771525,8.96551724 1,8.96551724 Z" id="ICO_OVERVIEW"></path>
                        </g>
                    </g>
                </g>
            </g>
        </g>
    </g>
</svg>