<?xml version="1.0" encoding="UTF-8"?>
<svg width="13px" height="22px" viewBox="0 0 13 22" version="1.1" xmlns="http://www.w3.org/2000/svg" xmlns:xlink="http://www.w3.org/1999/xlink">
    <!-- Generator: Sketch 50.2 (55047) - http://www.bohemiancoding.com/sketch -->
    <title>Shape@3x</title>
    <desc>Created with Sketch.</desc>
    <defs></defs>
    <g id="SCREENS" stroke="none" stroke-width="1" fill="none" fill-rule="evenodd">
        <g id="05_01-::-CLIENTS-PAGE" transform="translate(-365.000000, -290.000000)" fill="#0086FF" fill-rule="nonzero">
            <g id="Group-6" transform="translate(335.000000, 150.000000)">
                <g id="Group-5">
                    <g id="Group-8">
                        <g id="Group-9">
                            <g id="Group-3" transform="translate(30.000000, 140.000000)">
                                <path d="M11.0596742,0 L2.14249741,0 C1.29015509,0 0.601481481,0.691836292 0.601481481,1.54338793 L0.601481481,19.6489414 C0.601481481,20.4997023 1.29015509,21.1915386 2.14249741,21.1915386 L11.0588835,21.1915386 C11.9112259,21.1915386 12.6014808,20.4997023 12.6014808,19.6489414 L12.6014808,1.54338793 C12.6022715,0.691836292 11.9128072,0 11.0596742,0 Z M4.40065106,0.937734677 L8.80310189,0.937734677 C8.91458637,0.937734677 9.00393208,1.10377539 9.00393208,1.31014027 C9.00393208,1.51571448 8.91458637,1.68254586 8.80310189,1.68254586 L4.40065106,1.68254586 C4.28916659,1.68254586 4.20061154,1.51571448 4.20061154,1.31014027 C4.20061154,1.10377539 4.28916659,0.937734677 4.40065106,0.937734677 Z M6.60187648,19.6679174 C6.05868615,19.6679174 5.6167016,19.2267236 5.6167016,18.6827426 C5.6167016,18.1387616 6.05947682,17.699149 6.60187648,17.699149 C7.14427613,17.699149 7.58626069,18.1395522 7.58626069,18.6827426 C7.58626069,19.2267236 7.14348546,19.6679174 6.60187648,19.6679174 Z M11.4463119,16.2933377 L1.75744109,16.2933377 L1.75744109,2.60446714 L11.4463119,2.60446714 L11.4463119,16.2933377 Z" id="Shape"></path>
                            </g>
                        </g>
                    </g>
                </g>
            </g>
        </g>
    </g>
</svg>