<?xml version="1.0" encoding="UTF-8"?>
<svg width="74px" height="45px" viewBox="0 0 74 45" version="1.1" xmlns="http://www.w3.org/2000/svg" xmlns:xlink="http://www.w3.org/1999/xlink">
    <!-- Generator: Sketch 50.2 (55047) - http://www.bohemiancoding.com/sketch -->
    <title>Logo (2)</title>
    <desc>Created with Sketch.</desc>
    <defs>
        <linearGradient x1="-24.0373898%" y1="-23.4912691%" x2="118.13095%" y2="100%" id="linearGradient-1">
            <stop stop-color="#0086FF" offset="0%"></stop>
            <stop stop-color="#23BCFF" offset="46.3937189%"></stop>
            <stop stop-color="#68B7FF" offset="100%"></stop>
        </linearGradient>
    </defs>
    <g id="SYMBOLS" stroke="none" stroke-width="1" fill="none" fill-rule="evenodd">
        <g id="ASIDE" transform="translate(-106.000000, -28.000000)" fill-rule="nonzero">
            <g id="Logo-(2)" transform="translate(106.000000, 28.000000)">
                <path d="M53.1777008,12.3684211 C50.6308707,5.31724562 43.931664,0.623871604 36.4346509,0.638465751 C28.9376377,0.653059898 22.2567545,5.37248042 19.7373961,12.433518 C18.5590179,12.1611184 17.3534974,12.0235319 16.1440443,12.0234072 C7.22793494,12.0234073 2.40565e-07,19.2513421 2.40564999e-07,28.1674515 C2.40564998e-07,37.0835609 7.22793494,44.3114957 16.1440443,44.3114958 L46.3360111,44.3114958 L46.3360111,13.0193906 L53.1777008,13.0193906 L53.1777008,12.3684211 Z" id="Shape" fill="#0086FF"></path>
                <path d="M51.1727147,30.5304709 C49.9215832,30.5304709 48.9073407,29.5162284 48.9073407,28.265097 C48.919461,27.1238936 49.7786159,26.169897 50.9123269,26.0387812 L70.5976454,26.0387812 C71.7893004,25.9486362 72.7101952,24.9554476 72.7101952,23.7603878 C72.7101952,22.5653281 71.7893004,21.5721394 70.5976454,21.4819945 L49.1742382,21.4819945 C47.9159163,21.4819945 46.8958449,20.461923 46.8958449,19.2036011 C46.8958449,17.9452792 47.9159163,16.9252078 49.1742382,16.9252078 L63.0984765,16.9252078 C63.7044704,16.9252078 64.2856445,16.6844776 64.7141469,16.2559751 C65.1426493,15.8274727 65.3833795,15.2462987 65.3833795,14.6403047 C65.376218,13.383475 64.3553266,12.3684006 63.0984765,12.3684211 L45.8803324,12.3684211 C45.443739,12.3670474 45.0355217,12.5846003 44.7932133,12.9477839 L37.8668975,23.1745152 C37.6265328,23.5429114 37.2163996,23.7650262 36.7765235,23.7650262 C36.3366475,23.7650262 35.9265143,23.5429114 35.6861496,23.1745152 L28.7142659,12.9217452 C28.466061,12.5684518 28.0588523,12.3611898 27.6271468,12.3684211 L19.8149781,12.3682379 C19.8149781,12.3682379 19.8149781,12.3682379 19.8155125,12.6315789 L19.8155125,43.4391967 C19.8148791,43.7672293 19.8149781,44.3245152 19.8149781,44.3245152 L30.1203601,44.3245152 C30.1203601,44.3245152 30.1172637,43.766521 30.1203601,43.4391967 L30.1203601,34.3256233 C30.1239707,34.160238 30.233072,34.0157453 30.3911495,33.9669925 C30.549227,33.9182396 30.7207612,33.9761811 30.8168975,34.1108033 L35.6861496,41.2259003 C35.9270331,41.5914391 36.3354977,41.8114474 36.7732687,41.8114474 C37.2110397,41.8114474 37.6195043,41.5914391 37.8603878,41.2259003 L42.6905817,34.1108033 C42.786718,33.9761811 42.9582523,33.9182396 43.1163297,33.9669925 C43.2744072,34.0157453 43.3835085,34.160238 43.3871191,34.3256233 L43.3871191,43.4391967 C43.3864857,43.7672293 43.5097037,44.0834114 43.732133,44.3245152 L67.4795014,44.3245152 C68.7414185,44.3245152 69.7644044,43.3015293 69.7644044,42.0396122 L69.7644044,41.9029086 C69.7644044,40.6409915 68.7414185,39.6180055 67.4795014,39.6180055 L48.4451524,39.6180055 C47.2336319,39.5263034 46.3101776,38.4951734 46.3521089,37.2809111 C46.3940403,36.0666488 47.3864247,35.1016773 48.601385,35.0937673 L71.5415512,35.0937673 C72.3966562,35.1584533 73.2159849,34.738893 73.6633122,34.0072598 C74.1106394,33.2756267 74.1106394,32.3551212 73.6633122,31.6234881 C73.2159849,30.891855 72.3966562,30.4722946 71.5415512,30.5369806 L51.1727147,30.5304709 Z" id="Shape" fill="url(#linearGradient-1)"></path>
            </g>
        </g>
    </g>
</svg>